<svg xmlns="http://www.w3.org/2000/svg" width="720" height="308" viewBox="0 0 720 308">
  <g id="Logo_Self_spin-01" data-name="Logo Self spin-01" transform="translate(0 -1.57)">
    <path id="Path_9" data-name="Path 9" d="M307.67,155.145V309.01H153.83a154.47,154.47,0,0,1-36.6-4.377c-1.1-.27-2.2-.55-3.3-.849-2.57-.68-5.12-1.439-7.65-2.258-1.2-.39-2.39-.789-3.57-1.209a153.53,153.53,0,0,1-28.65-13.56c-1.05-.64-2.1-1.3-3.14-1.959l-.01-.01c-1.04-.66-2.07-1.339-3.09-2.028a154.378,154.378,0,0,1-22.77-18.776q-5.22-5.216-9.93-10.912-1.755-2.143-3.45-4.337-1.68-2.2-3.29-4.467c-.72-1-1.42-2.018-2.11-3.038-1.38-2.038-2.72-4.117-4-6.235-.64-1.049-1.27-2.118-1.89-3.188-.31-.54-.61-1.079-.92-1.619q-.9-1.634-1.77-3.268a152.74,152.74,0,0,1-7.7-17.027c-.44-1.169-.87-2.338-1.29-3.527s-.82-2.378-1.21-3.567q-1.17-3.6-2.16-7.265c-.33-1.219-.65-2.448-.95-3.677A153.907,153.907,0,0,1,.01,157.274C0,156.8,0,156.334,0,155.865v-.58A153.792,153.792,0,0,1,105.99,9.144q2.865-.929,5.79-1.759A154,154,0,0,1,153.83,1.57C238.74,1.57,307.59,70.309,307.67,155.145Z" fill="#ffc815"/>
    <path id="Path_10" data-name="Path 10" d="M307.67,309.23H153.83A153.359,153.359,0,0,1,45.05,264.17a153.359,153.359,0,0,0,108.78,45.06H307.67V155.12h0V309.23ZM188.4,213.54a67.659,67.659,0,0,1-78.68-6.89,67.662,67.662,0,0,0,78.64,6.9c.01,0,.03-.01.04-.01Zm-78.69-6.89c-.11-.1-.23-.2-.34-.29.12.09.23.19.34.29Zm-.34-.3a.265.265,0,0,0-.06-.05c.02.02.04.03.06.05Zm-.07-.06c-.02-.02-.04-.03-.06-.05a.266.266,0,0,1,.06.05Zm-.07-.07c-.02-.02-.04-.03-.06-.05a.265.265,0,0,0,.06.05Zm-.08-.06c-.06-.05-.12-.11-.18-.16.06.05.12.1.18.16Zm-.19-.17c-.02-.01-.03-.03-.05-.04a.1.1,0,0,1,.05.04Zm-.08-.07-.04-.04c.01.01.03.02.04.04Zm-.07-.07-.04-.04c.01.02.03.03.04.04Zm-.07-.06c-.02-.01-.03-.03-.05-.04a.176.176,0,0,1,.05.04Zm-.07-.06a.5.5,0,0,0-.08-.07.5.5,0,0,1,.08.07Zm-.12-.11a.138.138,0,0,0-.04-.03.138.138,0,0,1,.04.03Zm-.07-.07c-.01-.01-.03-.02-.04-.04a.078.078,0,0,0,.04.04Zm-.07-.06c-.02-.01-.03-.03-.04-.04.01.01.02.03.04.04Zm-.08-.07c-.02-.01-.03-.03-.04-.04l.04.04Zm-.07-.07-.04-.04a.078.078,0,0,0,.04.04Zm-.06-.05c-.03-.03-.07-.06-.1-.09a.9.9,0,0,1,.1.09Zm-.13-.11c-.01-.01-.03-.02-.04-.04a.078.078,0,0,1,.04.04Zm-.07-.07c-.01-.01-.03-.02-.04-.04.02.01.03.03.04.04Zm-.07-.07c-.01-.01-.03-.02-.04-.04l.04.04Zm-.08-.07-.03-.03.03.03Zm-.09-.09-.01-.01a.01.01,0,0,0,.01.01Zm-.09-.08-.03-.03.03.03Zm-.07-.07-.03-.03.03.03Zm-.07-.07-.03-.03q0,.015.03.03Zm-.08-.07-.03-.03.03.03Zm-.08-.07-.03-.03.03.03Zm-.1-.1-.01-.01a.01.01,0,0,0,.01.01Zm-.07-.06-.03-.03.03.03Zm-.07-.07-.03-.03.03.03Zm-.07-.07-.03-.03q0,.015.03.03Zm-.09-.08-.02-.02a.022.022,0,0,1,.02.02Zm-.09-.09Zm-.08-.07-.02-.02a.022.022,0,0,1,.02.02Zm-.07-.08-.03-.03q.015.03.03.03Zm-.07-.07c-.01-.01-.02-.01-.03-.02.01.01.02.01.03.02Zm-.08-.07-.03-.03q.03.015.03.03Zm-.07-.07-.02-.02.02.02Zm-.1-.1-.02-.02c.01.01.01.02.02.02Zm-.07-.07-.03-.03.03.03Zm-.07-.07-.03-.03.03.03Zm-.08-.08-.02-.02a.022.022,0,0,0,.02.02Zm-.07-.07-.02-.02.02.02Zm-.1-.09h0l-.09-.09a.381.381,0,0,1,.09.09Zm-.12-.13-.07-.07.07.07Zm-.09-.09a.6.6,0,0,0-.08-.08l.08.08Zm-.09-.09-.09-.09a.753.753,0,0,0,.09.09Zm-.12-.12-.07-.07.07.07Zm-.1-.1-.07-.07a.462.462,0,0,1,.07.07Zm-.09-.09-.09-.09.09.09Zm-.11-.12-.07-.07a.461.461,0,0,0,.07.07Zm-.1-.1-.07-.07.07.07Zm-.09-.09-.09-.09.09.09Zm-.1-.11c-.02-.03-.05-.05-.07-.08a.5.5,0,0,0,.07.08Zm-.11-.11a.435.435,0,0,1-.06-.07.435.435,0,0,0,.06.07Zm-.09-.09-.09-.09a.764.764,0,0,1,.09.09Zm-.1-.11-.08-.08a.6.6,0,0,1,.08.08Zm-.1-.11c-.02-.02-.04-.05-.06-.07.02.02.04.05.06.07Zm-.09-.1c-.06-.06-.12-.12-.18-.19.06.07.12.13.18.19Zm-.2-.21a.435.435,0,0,1-.06-.07.319.319,0,0,0,.06.07Zm-.1-.1c-.03-.03-.05-.06-.08-.09a.646.646,0,0,1,.08.09Zm-.08-.09a.9.9,0,0,1-.09-.1.9.9,0,0,1,.09.1Zm-.11-.13c-.02-.02-.04-.05-.06-.07a.134.134,0,0,0,.06.07Zm-.1-.1a.572.572,0,0,1-.07-.08c.03.03.05.06.07.08Zm-.08-.09a.647.647,0,0,1-.08-.09.647.647,0,0,0,.08.09Zm-.11-.12a.462.462,0,0,0-.07-.07l.07.07Zm-.1-.1a.435.435,0,0,1-.06-.07.435.435,0,0,1,.06.07Zm-.08-.1a.647.647,0,0,1-.08-.09.647.647,0,0,0,.08.09Zm-.11-.12c-.02-.02-.04-.05-.06-.07.02.02.04.05.06.07Zm-.09-.1a.435.435,0,0,1-.06-.07c.02.02.04.05.06.07Zm-.09-.1a.647.647,0,0,1-.08-.09c.03.03.05.06.08.09Zm-.1-.11a.5.5,0,0,0-.07-.08.5.5,0,0,1,.07.08Zm-.09-.11c-.02-.02-.04-.05-.06-.07.02.02.04.05.06.07Zm-.09-.1c-.06-.06-.11-.13-.17-.2.06.07.11.14.17.2Zm-.19-.22a.435.435,0,0,0-.06-.07c.02.02.04.05.06.07Zm-.09-.1a.549.549,0,0,1-.07-.09.55.55,0,0,0,.07.09Zm-.08-.1a.392.392,0,0,1-.08-.1.392.392,0,0,0,.08.1Zm-.11-.12c-.02-.02-.04-.05-.06-.07a.435.435,0,0,1,.06.07Zm-.09-.1c-.02-.03-.04-.05-.06-.08.01.02.04.05.06.08Zm-.08-.1c-.03-.03-.05-.07-.08-.1a.392.392,0,0,0,.08.1Zm-.11-.13a.435.435,0,0,1-.06-.07.435.435,0,0,0,.06.07Zm-.09-.1a.435.435,0,0,1-.06-.07.32.32,0,0,1,.06.07Zm-.08-.1c-.03-.03-.05-.06-.08-.09.03.03.05.06.08.09Zm-.11-.12c-.02-.02-.03-.04-.05-.06a.147.147,0,0,1,.05.06Zm-.08-.11c-.02-.02-.03-.04-.05-.06a.265.265,0,0,0,.05.06Zm-.08-.1c-.03-.03-.05-.06-.08-.09a.646.646,0,0,0,.08.09Zm-.1-.12c-.02-.02-.04-.05-.06-.07a.436.436,0,0,0,.06.07Zm-.09-.11c-.02-.02-.03-.04-.05-.06a.1.1,0,0,0,.05.06Zm-.09-.09c-.02-.03-.04-.05-.06-.08a.554.554,0,0,1,.06.08Zm-.09-.12a.555.555,0,0,1-.06-.08.555.555,0,0,0,.06.08Zm-.09-.12a.121.121,0,0,0-.05-.05c.02.02.03.04.05.05Zm-.08-.09a.179.179,0,0,1-.05-.07.3.3,0,0,0,.05.07Zm-.09-.1a.549.549,0,0,1-.07-.09.549.549,0,0,1,.07.09Zm-.1-.13c-.02-.02-.03-.04-.05-.06a.265.265,0,0,1,.05.06Zm-.08-.1a.265.265,0,0,1-.05-.06c.02.02.03.04.05.06Zm-.08-.1c-.02-.03-.05-.06-.07-.09.02.03.05.06.07.09Zm-.1-.13c-.02-.02-.03-.04-.05-.06a.265.265,0,0,0,.05.06Zm-.08-.1a.423.423,0,0,1-.05-.07.3.3,0,0,0,.05.07Zm-.08-.1c-.02-.03-.05-.06-.07-.09a.549.549,0,0,0,.07.09Zm-.1-.13a.265.265,0,0,0-.05-.06.265.265,0,0,0,.05.06Zm-.09-.11a.265.265,0,0,0-.05-.06.265.265,0,0,1,.05.06Zm-.07-.1c-.02-.03-.04-.05-.06-.08a.555.555,0,0,0,.06.08Zm-.1-.13c-.02-.02-.03-.04-.05-.06.02.02.03.04.05.06Zm-.08-.1a.265.265,0,0,0-.05-.06c.02.02.03.04.05.06Zm-.08-.1c-.02-.03-.04-.05-.06-.08.02.03.04.05.06.08Zm-.09-.12c-.02-.03-.04-.05-.06-.08a.554.554,0,0,0,.06.08Zm-.09-.12c-.01-.02-.03-.04-.04-.06a.154.154,0,0,0,.04.06Zm-.08-.1a.218.218,0,0,0-.04-.05.218.218,0,0,1,.04.05Zm-.09-.13a.265.265,0,0,0-.05-.06.265.265,0,0,0,.05.06Zm-.09-.11a.176.176,0,0,0-.04-.05c.02.02.03.04.04.05Zm-.07-.1a.176.176,0,0,0-.04-.05.218.218,0,0,0,.04.05Zm-.08-.1a.549.549,0,0,0-.07-.09.969.969,0,0,0,.07.09Zm-.1-.13c-.01-.02-.03-.03-.04-.05a.1.1,0,0,1,.04.05Zm-.07-.11c-.01-.01-.02-.03-.03-.04a.054.054,0,0,0,.03.04Zm-.18-.24c-.01-.01-.02-.03-.03-.04.01.01.02.03.03.04Zm-.08-.1a.218.218,0,0,1-.03-.05.218.218,0,0,0,.03.05Zm-.07-.1c-.01-.02-.03-.04-.04-.06a.591.591,0,0,0,.04.06Zm-.09-.13c-.01-.02-.03-.03-.04-.05.01.01.02.03.04.05Zm-.08-.11c-.01-.02-.02-.03-.03-.05a.218.218,0,0,0,.03.05Zm-.07-.1a.176.176,0,0,0-.04-.05.218.218,0,0,0,.04.05Zm-.1-.13a.176.176,0,0,0-.04-.05.1.1,0,0,1,.04.05Zm-.08-.11c-.01-.01-.02-.03-.03-.04a.138.138,0,0,1,.03.04Zm-.07-.1c-.01-.01-.02-.03-.03-.04a.138.138,0,0,1,.03.04Zm-.1-.14c-.01-.01-.02-.03-.03-.04a.138.138,0,0,1,.03.04Zm-.07-.11c-.01-.01-.02-.03-.03-.04a.138.138,0,0,0,.03.04Zm-.07-.1c-.01-.01-.01-.02-.02-.03,0,.01.01.02.02.03Zm-.11-.15c-.01-.01-.01-.02-.02-.03.01.01.02.02.02.03Zm-.06-.09c-.01-.01-.02-.03-.03-.04.01.01.02.03.03.04Zm-.07-.1a.138.138,0,0,1-.03-.04c.02.02.02.03.03.04Zm-.17-.25c-.01-.01-.01-.02-.02-.03.01.01.01.02.02.03Zm-.07-.1c0-.01-.01-.02-.02-.03.01.01.02.02.02.03Zm-.06-.1c0-.01-.01-.01-.02-.02l.02.02Zm-.1-.15c-.01-.01-.01-.02-.02-.03,0,.01.01.02.02.03Zm-.07-.09a.076.076,0,0,1-.02-.04c.01.01.01.02.02.04Zm-.06-.1a.052.052,0,0,1-.02-.04c0,.01.01.02.02.04Zm-.11-.16c-.01-.01-.01-.02-.02-.03.01.01.01.02.02.03Zm-.06-.1c-.01-.01-.01-.02-.02-.03,0,.01.01.02.02.03Zm-.07-.1-.01-.01.01.01Zm-.12-.18Zm-.05-.07c-.01-.01-.01-.01-.01-.02a.035.035,0,0,1,.01.02Zm-.06-.1c0-.01-.01-.01-.01-.02a.035.035,0,0,0,.01.02Zm-.16-.26c0-.01-.01-.01-.01-.02,0,.01,0,.02.01.02Zm-.06-.09c0-.01-.01-.01-.01-.02,0,.01,0,.01.01.02Zm-.17-.27Zm-.06-.08c-.01-.01-.01-.01-.01-.02a.035.035,0,0,1,.01.02Zm-.22-.36c0-.01-.01-.01-.01-.02,0,.01,0,.02.01.02Zm-.22-.35c-.01-.01-.01-.01-.01-.02a.031.031,0,0,0,.01.02Zm-.22-.36a.01.01,0,0,0-.01-.01.01.01,0,0,1,.01.01Zm-.06-.1Zm-.16-.26a.01.01,0,0,0-.01-.01c.01,0,.01,0,.01.01Zm-.05-.1Zm-.17-.27Zm-.05-.09Zm-.16-.27Zm-.05-.09Zm-.21-.36Zm-8.83-34.57v0Zm.01-.3v0Zm0-.1v0Zm.01-.31Zm0-.09v0Zm.01-.11v0Zm0-.2Zm.01-.08v-.05c0,.02-.01.03,0,.05Zm0-.12v0Zm0-.11v-.11a.405.405,0,0,1,0,.11Zm.01-.16v0Zm0-.12v-.07c.01.02,0,.04,0,.07Zm.01-.12a.41.41,0,0,1,.01-.11.41.41,0,0,0-.01.11Zm.01-.15v0Zm0-.13v0Zm.01-.12c0-.08.01-.16.01-.24,0,.08-.01.16-.01.24Zm.01-.27v0Zm.01-.12c0-.08.01-.17.01-.25,0,.08-.01.16-.01.25Zm.01-.27a.41.41,0,0,1,.01-.11.41.41,0,0,1-.01.11Zm.01-.13a1.949,1.949,0,0,1,.02-.25c-.01.08-.01.16-.02.25Zm.02-.26a.615.615,0,0,1,.01-.13.57.57,0,0,0-.01.13Zm.01-.13.03-.39a2.465,2.465,0,0,0-.03.39Zm.02-.4a67.5,67.5,0,0,1,1.76-11.19h0a68.561,68.561,0,0,0-1.76,11.19Z" transform="translate(0 -0.23)" fill="#fee08d"/>
    <path id="Path_11" data-name="Path 11" d="M307.67,309.23H153.83A153.827,153.827,0,0,1,0,155.4c4.41-13.98,10.6-24.13,17.67-31.21,28.43-28.43,71.19-7.21,70.48,15.11a68.392,68.392,0,0,0-1.76,11.19h0l-.03.39v.01c0,.04-.01.08-.01.13v.01c-.01.08-.01.17-.02.25v.02a.41.41,0,0,1-.01.11v.01a2.09,2.09,0,0,0-.01.25v.15c0,.08-.01.16-.01.24v.29a.375.375,0,0,1-.01.11v1.12h0c0,.1-.01.2-.01.29v.12a2.809,2.809,0,0,1-.01.29v.01a67.6,67.6,0,0,0,8.83,34.56v.01c.07.12.14.24.2.36v.01c.02.03.03.06.05.09h0c.05.09.1.18.16.27v.01c.02.03.03.06.05.09h0c.05.09.1.17.16.26l.01.01a.351.351,0,0,0,.05.08l.01.01c.05.09.1.17.16.26h0a.558.558,0,0,0,.05.08.01.01,0,0,0,.01.01c.07.11.14.23.21.34,0,.01.01.01.01.02l.21.33c0,.01.01.01.01.02l.21.33c0,.01.01.01.01.02.02.03.03.05.05.08l.01.01c.05.08.1.16.16.24,0,.01.01.01.01.02.02.02.03.05.05.07,0,.01.01.01.01.02l.15.24c0,.01.01.01.01.02.02.02.03.05.05.07s.01.01.01.02c.02.03.03.05.05.08h0c.04.05.07.11.11.16a.01.01,0,0,0,.01.01.423.423,0,0,0,.05.07c.01.01.01.02.02.03a.3.3,0,0,0,.05.07c.01.01.01.02.02.03.03.04.05.08.08.12a.076.076,0,0,1,.02.04c.01.02.03.04.04.06s.01.02.02.04.03.04.04.06.01.02.02.03c.03.04.06.09.09.13.01.01.01.02.02.02.01.02.03.04.05.07,0,.01.01.02.02.03a.3.3,0,0,0,.05.07c.01.01.01.02.02.03l.15.21a.138.138,0,0,1,.03.04c.01.02.03.04.04.06s.02.03.03.04.03.04.04.06.01.02.02.03a.835.835,0,0,1,.08.12c.01.01.01.02.02.03s.03.04.04.06.02.03.03.04.03.04.04.06.02.03.03.04c.02.03.05.07.07.1.01.01.02.03.03.04s.03.04.04.06.02.03.03.04.03.04.04.06a.176.176,0,0,0,.04.05l.06.09a.176.176,0,0,0,.04.05.218.218,0,0,0,.04.05c.01.02.02.03.03.05a.176.176,0,0,0,.04.05.218.218,0,0,0,.04.05c.02.03.04.05.06.08s.03.04.04.06.03.03.04.05a.218.218,0,0,1,.03.05c.01.02.03.04.04.06s.02.03.03.04a2.428,2.428,0,0,1,.14.2c.01.01.02.03.03.04s.03.03.04.05.03.03.04.05a.176.176,0,0,0,.04.05.549.549,0,0,0,.07.09c.01.02.02.03.03.05s.03.03.04.05.03.03.04.05a230925935033.123,230925935033.123,0,0,1,.08.1.265.265,0,0,0,.05.06.435.435,0,0,0,.06.07.218.218,0,0,0,.04.05c.01.01.02.03.04.05s.03.04.04.06.02.03.03.04c.02.03.04.05.06.08.01.01.02.03.03.04.02.03.04.05.06.08.01.01.02.03.03.04a.265.265,0,0,0,.05.06c.01.01.02.03.03.04s.03.04.05.06a.176.176,0,0,0,.04.05c.02.03.04.05.06.08.01.01.02.03.03.04a.265.265,0,0,0,.05.06c.01.01.02.03.03.04a.265.265,0,0,0,.05.06.138.138,0,0,1,.03.04c.02.03.05.06.07.09l.03.03a.179.179,0,0,1,.05.07c.01.01.02.03.03.04s.03.04.05.06.02.03.03.04c.02.03.05.06.07.09l.03.03c.02.02.03.04.05.06s.02.03.03.04.03.04.05.06a.138.138,0,0,1,.03.04.549.549,0,0,1,.07.09l.03.03a.179.179,0,0,1,.05.07c.01.01.02.03.03.04a.121.121,0,0,0,.05.05.078.078,0,0,0,.04.04c.02.03.04.05.06.08l.03.03c.02.03.04.05.06.08.01.01.02.03.03.04s.03.04.05.06.02.03.03.04a.435.435,0,0,1,.06.07c.01.01.02.02.02.03.03.03.05.06.08.09a.138.138,0,0,1,.03.04c.02.02.03.04.05.06s.02.03.04.04.03.04.05.06l.03.03c.03.03.05.06.08.09l.03.03a.435.435,0,0,1,.06.07l.03.03a.435.435,0,0,1,.06.07l.03.03c.03.03.05.07.08.1l.02.02a.555.555,0,0,1,.06.08.138.138,0,0,1,.03.04.435.435,0,0,1,.06.07l.03.03a.874.874,0,0,1,.08.1.01.01,0,0,0,.01.01c.02.03.05.06.07.09.01.01.02.02.02.03a.435.435,0,0,0,.06.07c.01.01.01.02.02.02l.17.2.03.03c.02.02.04.05.06.07l.03.03c.02.03.05.05.07.08l.02.02a.647.647,0,0,1,.08.09c.01.01.02.02.02.03a.435.435,0,0,1,.06.07l.03.03c.02.02.04.05.06.07s.01.02.02.03a.647.647,0,0,1,.08.09l.03.03a.435.435,0,0,1,.06.07l.03.03a.462.462,0,0,0,.07.07c.01.01.01.02.02.03a.647.647,0,0,1,.08.09l.02.02c.02.03.05.05.07.08l.03.03a.435.435,0,0,0,.06.07c.01.01.02.02.02.03a.9.9,0,0,1,.09.1l.01.01c.03.03.05.06.08.09l.03.03a.435.435,0,0,1,.06.07l.03.03c.06.06.12.12.18.19l.03.03c.02.02.04.05.06.07l.03.03.08.08.01.01.09.09.03.03c.02.02.04.05.06.07l.03.03a.5.5,0,0,1,.07.08l.01.01.09.09c.01.01.01.02.02.02l.07.07.03.03a.234.234,0,0,0,.07.07l.02.02.09.09.02.02.07.07.03.03.07.07.02.02.09.09a.035.035,0,0,0,.02.01l.08.08.03.03.07.07.03.03.09.09h0l.07.07.02.02.05.05.02.02.05.05.03.03.05.05.03.03.05.05.02.02a.462.462,0,0,1,.07.07l.02.02.05.05.03.03.05.05c.01.01.02.02.03.02s.03.03.05.05l.03.03c.02.02.04.03.05.05l.02.02a.462.462,0,0,1,.07.07h.01l.07.07.02.02.05.05.03.03.04.04.03.03.04.04.03.03.06.06.01.01.07.07c.01.01.02.01.03.03a.218.218,0,0,0,.05.04l.03.03.04.04.03.03.04.04.03.03.04.04.03.03a.462.462,0,0,1,.07.07l.01.01a.265.265,0,0,0,.06.05l.03.03a.138.138,0,0,0,.04.03c.01.01.03.02.04.04a.138.138,0,0,0,.04.03c.01.01.03.02.04.04l.03.03c.01.01.03.02.04.04l.03.03a.9.9,0,0,0,.1.09.035.035,0,0,0,.02.01l.04.04.03.03c.02.01.03.03.04.04l.03.03.04.04.03.03c.01.01.03.02.04.04s.03.02.04.03a.138.138,0,0,0,.04.03c.01.01.03.02.04.04.03.03.06.05.08.07l.02.02a.218.218,0,0,0,.05.04l.03.03.04.04.03.03c.01.01.03.02.04.04l.03.03c.02.01.03.03.05.04l.01.01c.06.05.12.11.18.16l.02.02c.02.02.04.03.06.05l.01.01c.02.02.04.03.06.05a.01.01,0,0,1,.01.01.265.265,0,0,0,.06.05h0c.11.1.23.2.34.29l.01.01a67.676,67.676,0,0,0,78.68,6.89c13.13-6.15,21.85-12.25,28.98-19.38,9.57-9.57,16.27-21,26.94-36.94a43.117,43.117,0,0,1,5.29-6.45c17.03-17.03,45.25-15.57,58.07,4.35v.28l-.09,153.83Z" transform="translate(0 -0.23)" fill="#808285"/>
    <path id="Path_12" data-name="Path 12" d="M306.78,249.58c-18.42-61-102.39-39.06-127.53-30.97a67.653,67.653,0,0,1-6.98,2.4l-.16.06S55.69,266,0,155.97A153.827,153.827,0,0,0,153.83,309.8H307.66V252.25c-.29-.84-.59-1.71-.88-2.67Z" transform="translate(0 -0.23)" fill="#58595b"/>
    <path id="Path_13" data-name="Path 13" d="M156.74,65.96A83.64,83.64,0,1,1,73.1,149.6a83.644,83.644,0,0,1,83.64-83.64Z" transform="translate(0 -0.105)" fill="#fff" fill-rule="evenodd"/>
    <path id="Path_14" data-name="Path 14" d="M185.03,148.2l-.01-.07-.2-1.08a31.081,31.081,0,0,0-.9-3.31,28.7,28.7,0,0,0-6.29-10.51L143.02,67.08,111.78,7.39q-2.925.825-5.79,1.76l10.59,67.06,11.64,73.66a28.408,28.408,0,0,0,1.35,12.17,28,28,0,0,0,1.28,3.17l.03.07.49.99a28.679,28.679,0,0,0,53.66-18.07Zm-30.81,2.5a2.512,2.512,0,1,1,1.29,3.31A2.511,2.511,0,0,1,154.22,150.7Z" fill="#fff" fill-rule="evenodd"/>
    <path id="Path_15" data-name="Path 15" d="M130.13,60.92l41.76,76.56a21.479,21.479,0,0,1,5.33,8.52,22.591,22.591,0,0,1,.68,2.5l.16.87a21.6,21.6,0,0,1-40.42,13.61l-.4-.79a21.108,21.108,0,0,1-.97-2.4,21.643,21.643,0,0,1-.91-10.01l-16.6-109.7,11.37,20.84Z" fill="#292929"/>
    <path id="Path_16" data-name="Path 16" d="M150.79,159.91a9.585,9.585,0,1,0-3.63-13.06,9.586,9.586,0,0,0,3.63,13.06Z" transform="translate(0 -0.112)" fill="#ffcb05"/>
    <path id="Path_17" data-name="Path 17" d="M359.78,123.28a8.59,8.59,0,0,1-4.92-5.25,9.925,9.925,0,0,1,.27-7.49l5.72-13.3a51.783,51.783,0,0,0,9.65,5.25,65.952,65.952,0,0,0,11.26,3.56,52.932,52.932,0,0,0,11.44,1.31q16.1,0,16.09-8.43a6.217,6.217,0,0,0-2.41-4.87,17.733,17.733,0,0,0-6.35-3.28q-3.93-1.215-8.94-2.44T381.31,85.9a48.318,48.318,0,0,1-10.28-3.65,49.026,49.026,0,0,1-8.94-5.53,22.138,22.138,0,0,1-6.35-8.34,28.874,28.874,0,0,1-2.41-12.18,29.8,29.8,0,0,1,11.26-23.98q11.265-9.36,32.36-9.37,20.91,0,35.57,8.99l-5.18,13.3a8.066,8.066,0,0,1-4.47,4.59,7.525,7.525,0,0,1-6.26.09,51.726,51.726,0,0,0-19.84-4.31q-15.915,0-15.91,9.18,0,3.75,4.11,6.09a31.058,31.058,0,0,0,10.37,3.37,112.587,112.587,0,0,1,13.5,3.18,94.919,94.919,0,0,1,13.41,5.06,24.979,24.979,0,0,1,10.28,9.18,26.9,26.9,0,0,1,4.11,15.08,29.843,29.843,0,0,1-11.26,23.88q-11.265,9.465-32.36,9.46a78.921,78.921,0,0,1-33.24-6.71Zm173.38-17.8v22.48H466.84a12.066,12.066,0,0,1-8.94-3.84,13.011,13.011,0,0,1-3.75-9.46V24.93h77.23V47.41H464.34l17.34,8.8v8.62h43.8V86.56h-43.8v18.92h51.48Zm17.32-80.55h19.13a8.381,8.381,0,0,1,6.17,2.62,8.94,8.94,0,0,1,2.59,6.56V94.43l-15.73,10.49h55.42a6.715,6.715,0,0,1,5.01,2.25,7.375,7.375,0,0,1,2.15,5.25v15.55H550.5V24.93ZM719.93,47.41H652l18.59,11.43V70.08h43.44V83.94a8.35,8.35,0,0,1-2.5,6.09,8.01,8.01,0,0,1-5.9,2.53H670.59v35.41H651.28a8.092,8.092,0,0,1-6.08-2.62,8.878,8.878,0,0,1-2.5-6.37V24.93h77.23V47.41Z" fill="#58595b"/>
    <path id="Path_18" data-name="Path 18" d="M360.24,249.94a8.78,8.78,0,0,1-5.21-5.25,9.4,9.4,0,0,1,.28-7.49l6.06-13.3a55.758,55.758,0,0,0,10.23,5.25,72.769,72.769,0,0,0,11.94,3.56,59.332,59.332,0,0,0,12.13,1.31q17.055,0,17.05-8.43a6.094,6.094,0,0,0-2.56-4.87,19.3,19.3,0,0,0-6.73-3.28q-4.17-1.215-9.47-2.44t-10.9-2.44a54.821,54.821,0,0,1-20.36-9.18,22.344,22.344,0,0,1-6.73-8.34,27.426,27.426,0,0,1-2.56-12.18q0-14.61,11.94-23.98t34.3-9.37q22.17,0,37.71,8.99l-5.49,13.3a8.3,8.3,0,0,1-4.74,4.59,8.4,8.4,0,0,1-6.63.09,57.656,57.656,0,0,0-21.03-4.31q-16.86,0-16.86,9.18,0,3.75,4.36,6.09a34.6,34.6,0,0,0,10.99,3.37,125.424,125.424,0,0,1,14.31,3.18,104.528,104.528,0,0,1,14.21,5.06,26.059,26.059,0,0,1,10.9,9.18,25.734,25.734,0,0,1,4.36,15.08q0,14.43-11.94,23.88t-34.3,9.46q-19.545.06-35.26-6.71Zm147.77-98.35q21.225,0,33.73,10.21t12.51,27.82q0,17.61-12.51,27.82t-33.73,10.21H489.82v16.49a10.025,10.025,0,0,1-3.13,7.4,10.483,10.483,0,0,1-7.67,3.09H460.26V151.59Zm-1.89,53.02q9.09,0,13.74-3.84t4.64-11.15q0-7.3-4.64-11.24t-13.74-3.93H471.07l18.76,7.68v22.48Zm66.67,50.02V151.59h29.56V254.62H572.79ZM699.16,151.59H720V254.62H695.56l-45.85-54.89v45.71a8.58,8.58,0,0,1-1.33,4.59,9.649,9.649,0,0,1-3.41,3.37,8.864,8.864,0,0,1-4.55,1.22H620.71V160.2a8.251,8.251,0,0,1,2.56-6.09,8.663,8.663,0,0,1,6.35-2.53h15.35l66.7,78.68-20.65-34.1V159.63a7.714,7.714,0,0,1,2.37-5.71,7.9,7.9,0,0,1,5.77-2.33Z" transform="translate(0 -0.169)" fill="#f9c221"/>
    <path id="Path_19" data-name="Path 19" d="M351.94,309.11V284.15h3.31v10.29h12.9V284.15h3.31v24.96h-3.31V297.36h-12.9v11.75Zm25.59,0V284.15h3.31v24.96Zm9.2,0V284.15h11.06a14.871,14.871,0,0,1,5.07.67,5.54,5.54,0,0,1,2.77,2.37,7.087,7.087,0,0,1,1.03,3.76,6.261,6.261,0,0,1-1.72,4.48,8.693,8.693,0,0,1-5.31,2.31,8.624,8.624,0,0,1,1.99,1.24,16.641,16.641,0,0,1,2.73,3.32l4.32,6.8h-4.13l-3.3-5.2c-.96-1.5-1.76-2.65-2.38-3.45a7.637,7.637,0,0,0-1.68-1.67,5.209,5.209,0,0,0-1.5-.66,9.776,9.776,0,0,0-1.84-.12h-3.82v11.09h-3.29Zm3.31-13.94h7.09a10.616,10.616,0,0,0,3.53-.47,3.711,3.711,0,0,0,1.93-1.5,4.072,4.072,0,0,0,.66-2.24,3.722,3.722,0,0,0-1.28-2.92,5.962,5.962,0,0,0-4.04-1.14h-7.89v8.27Zm21.87,13.94V284.15h18.03v2.93H415.23v7.67H429v2.93H415.23v8.51h15.31v2.93H411.91Zm23.68,0v-3.49h3.49v3.49Zm24.6,0V287.07h-8.23v-2.93h19.77v2.93H463.5v22.04Zm15.02,0V284.15h11.06a14.871,14.871,0,0,1,5.07.67,5.54,5.54,0,0,1,2.77,2.37,7.087,7.087,0,0,1,1.03,3.76,6.261,6.261,0,0,1-1.72,4.48,8.693,8.693,0,0,1-5.31,2.31,8.624,8.624,0,0,1,1.99,1.24,16.641,16.641,0,0,1,2.73,3.32l4.32,6.8h-4.13l-3.3-5.2c-.96-1.5-1.76-2.65-2.38-3.45a7.637,7.637,0,0,0-1.68-1.67,5.147,5.147,0,0,0-1.51-.66,9.776,9.776,0,0,0-1.84-.12h-3.82v11.09h-3.28Zm3.31-13.94h7.09a10.616,10.616,0,0,0,3.53-.47,3.711,3.711,0,0,0,1.93-1.5,4.072,4.072,0,0,0,.66-2.24,3.722,3.722,0,0,0-1.28-2.92,5.962,5.962,0,0,0-4.04-1.14h-7.89v8.27Zm19.07,13.94,9.58-24.96h3.63l10.16,24.96H517.2l-2.89-7.57H503.8l-2.71,7.57Zm7.18-10.25h8.51l-2.6-6.92q-1.17-3.15-1.79-5.21a34.183,34.183,0,0,1-1.38,4.81l-2.74,7.32Zm23.34,10.25-9.65-24.96h3.58l6.49,18.14c.52,1.45.96,2.81,1.31,4.09.38-1.37.83-2.73,1.34-4.09l6.73-18.14h3.37l-9.73,24.96h-3.44Zm16.21,0V284.15h18.03v2.93H547.64v7.67h13.77v2.93H547.64v8.51h15.31v2.93H544.32Zm23.04,0V284.15h3.31v22.04h12.27v2.93H567.36Zm20.02,0v-3.49h3.49v3.49Zm18.96,0V284.15h18.03v2.93H609.66v7.67h13.77v2.93H609.66v8.51h15.31v2.93H606.34Zm23.15,0V284.15h3.39l13.1,19.6v-19.6h3.17v24.96h-3.39l-13.1-19.6v19.6Zm23.54-7.08,2.96-.41a6.479,6.479,0,0,0,1.07,3.93,3.39,3.39,0,0,0,2.64,1.06,3.908,3.908,0,0,0,2.14-.57,2.909,2.909,0,0,0,1.24-1.55,10.286,10.286,0,0,0,.34-3.13V284.15h3.31v17.01a12.288,12.288,0,0,1-.76,4.85,5.411,5.411,0,0,1-2.4,2.62,7.88,7.88,0,0,1-3.85.9,6.516,6.516,0,0,1-5.03-1.89q-1.725-1.89-1.66-5.61Zm18.1-5.07q0-6.21,3.34-9.72a11.372,11.372,0,0,1,8.62-3.51,12,12,0,0,1,6.24,1.65,10.758,10.758,0,0,1,4.23,4.6,14.917,14.917,0,0,1,1.46,6.69,14.722,14.722,0,0,1-1.53,6.79,10.4,10.4,0,0,1-4.34,4.53,12.421,12.421,0,0,1-6.07,1.54,11.846,11.846,0,0,1-6.3-1.7,10.981,10.981,0,0,1-4.21-4.64,13.859,13.859,0,0,1-1.44-6.23Zm3.42.06a10.02,10.02,0,0,0,2.42,7.1,8.479,8.479,0,0,0,12.22-.02c1.6-1.74,2.41-4.22,2.41-7.43a12.673,12.673,0,0,0-1.03-5.31,7.99,7.99,0,0,0-3.01-3.52,8.206,8.206,0,0,0-4.45-1.25,8.4,8.4,0,0,0-6.03,2.41q-2.535,2.4-2.53,8.02Zm31.75,12.09V298.53l-9.62-14.39h3.97l4.93,7.55q1.38,2.1,2.55,4.2c.76-1.31,1.69-2.77,2.76-4.4l4.84-7.36h3.85l-9.97,14.39V309.1H706.3Z" transform="translate(0 -0.23)" fill="#606060"/>
  </g>
</svg>
